# xmcd
#
# Track frame offsets:
#	150
#	11528
#	49873
#	98304
#	128773
#	163156
#	177550
#	204085
#	235821
#	260400
#	289717
#
# Disc length: 4301 seconds
#
# Revision: 1
# Processed by: cddbd v1.5.2PL0 Copyright (c) Steve Scherf et al.
# Submitted via: audiograbber 1.83.01
#
DISCID=8b10cb0b
DTITLE=Grateful Dead - 78-12-12 Jai-Alai Fronton, Miami FL
DYEAR=1900
DGENRE=
TTITLE0=Tuning
TTITLE1=Mississippi Half-Step
TTITLE2=Franklin's Tower
TTITLE3=Looks Like Rain
TTITLE4=Peggy-O
TTITLE5=Me and My Uncle
TTITLE6=Big River
TTITLE7=Ramble On Rose
TTITLE8=New Minglewood Blues
TTITLE9=Stagger Lee
TTITLE10=The Music Never Stopped
EXTD=
EXTT0=
EXTT1=
EXTT2=
EXTT3=
EXTT4=
EXTT5=
EXTT6=
EXTT7=
EXTT8=
EXTT9=
EXTT10=
PLAYORDER=
